<mxfile host="app.diagrams.net" modified="2020-11-23T11:20:32.454Z" agent="5.0 (Windows NT 10.0; Win64; x64) AppleWebKit/537.36 (KHTML, like Gecko) Chrome/86.0.4240.198 Safari/537.36" etag="yqxERx7Nbi0G-VbF942j" version="13.10.1" type="github">
  <diagram id="R2lEEEUBdFMjLlhIrx00" name="Page-1">
    <mxGraphModel dx="2676" dy="1929" grid="1" gridSize="10" guides="1" tooltips="1" connect="1" arrows="1" fold="1" page="1" pageScale="1" pageWidth="850" pageHeight="1100" math="0" shadow="0" extFonts="Permanent Marker^https://fonts.googleapis.com/css?family=Permanent+Marker">
      <root>
        <mxCell id="0" />
        <mxCell id="1" parent="0" />
        <mxCell id="UzssVdVslOZe2eo8AeVJ-1" value="Pàrking" style="rounded=0;whiteSpace=wrap;html=1;" parent="1" vertex="1">
          <mxGeometry x="160" y="200" width="120" height="40" as="geometry" />
        </mxCell>
        <mxCell id="UzssVdVslOZe2eo8AeVJ-2" value="" style="endArrow=none;html=1;" parent="1" source="UzssVdVslOZe2eo8AeVJ-5" edge="1">
          <mxGeometry width="50" height="50" relative="1" as="geometry">
            <mxPoint x="240" y="200" as="sourcePoint" />
            <mxPoint x="260" y="160" as="targetPoint" />
          </mxGeometry>
        </mxCell>
        <mxCell id="UzssVdVslOZe2eo8AeVJ-3" value="" style="endArrow=none;html=1;exitX=0.25;exitY=0;exitDx=0;exitDy=0;" parent="1" source="UzssVdVslOZe2eo8AeVJ-1" edge="1">
          <mxGeometry width="50" height="50" relative="1" as="geometry">
            <mxPoint x="160" y="180" as="sourcePoint" />
            <mxPoint x="170" y="160" as="targetPoint" />
          </mxGeometry>
        </mxCell>
        <mxCell id="UzssVdVslOZe2eo8AeVJ-4" value="&lt;u&gt;CodiParking&lt;/u&gt;" style="ellipse;whiteSpace=wrap;html=1;" parent="1" vertex="1">
          <mxGeometry x="130" y="140" width="70" height="40" as="geometry" />
        </mxCell>
        <mxCell id="UzssVdVslOZe2eo8AeVJ-5" value="Adreça" style="ellipse;whiteSpace=wrap;html=1;" parent="1" vertex="1">
          <mxGeometry x="210" y="135" width="50" height="40" as="geometry" />
        </mxCell>
        <mxCell id="UzssVdVslOZe2eo8AeVJ-6" value="" style="endArrow=none;html=1;" parent="1" target="UzssVdVslOZe2eo8AeVJ-5" edge="1">
          <mxGeometry width="50" height="50" relative="1" as="geometry">
            <mxPoint x="240" y="200" as="sourcePoint" />
            <mxPoint x="260" y="160" as="targetPoint" />
          </mxGeometry>
        </mxCell>
        <mxCell id="UzssVdVslOZe2eo8AeVJ-7" value="" style="endArrow=none;html=1;exitX=1;exitY=0.5;exitDx=0;exitDy=0;" parent="1" source="UzssVdVslOZe2eo8AeVJ-1" edge="1">
          <mxGeometry width="50" height="50" relative="1" as="geometry">
            <mxPoint x="300" y="230" as="sourcePoint" />
            <mxPoint x="350" y="220" as="targetPoint" />
          </mxGeometry>
        </mxCell>
        <mxCell id="UzssVdVslOZe2eo8AeVJ-8" value="1" style="text;html=1;align=center;verticalAlign=middle;resizable=0;points=[];autosize=1;" parent="1" vertex="1">
          <mxGeometry x="280" y="200" width="20" height="20" as="geometry" />
        </mxCell>
        <mxCell id="UzssVdVslOZe2eo8AeVJ-9" value="Té" style="rhombus;whiteSpace=wrap;html=1;" parent="1" vertex="1">
          <mxGeometry x="345" y="180" width="80" height="80" as="geometry" />
        </mxCell>
        <mxCell id="UzssVdVslOZe2eo8AeVJ-10" value="" style="endArrow=none;html=1;exitX=1;exitY=0.5;exitDx=0;exitDy=0;" parent="1" source="UzssVdVslOZe2eo8AeVJ-9" edge="1">
          <mxGeometry width="50" height="50" relative="1" as="geometry">
            <mxPoint x="470" y="250" as="sourcePoint" />
            <mxPoint x="490" y="220" as="targetPoint" />
          </mxGeometry>
        </mxCell>
        <mxCell id="UzssVdVslOZe2eo8AeVJ-11" value="Places&amp;nbsp;" style="rounded=0;whiteSpace=wrap;html=1;" parent="1" vertex="1">
          <mxGeometry x="490" y="200" width="120" height="40" as="geometry" />
        </mxCell>
        <mxCell id="UzssVdVslOZe2eo8AeVJ-12" value="n" style="text;html=1;align=center;verticalAlign=middle;resizable=0;points=[];autosize=1;" parent="1" vertex="1">
          <mxGeometry x="460" y="200" width="20" height="20" as="geometry" />
        </mxCell>
        <mxCell id="UzssVdVslOZe2eo8AeVJ-13" value="" style="endArrow=none;html=1;" parent="1" edge="1">
          <mxGeometry width="50" height="50" relative="1" as="geometry">
            <mxPoint x="570" y="200" as="sourcePoint" />
            <mxPoint x="590" y="160" as="targetPoint" />
          </mxGeometry>
        </mxCell>
        <mxCell id="UzssVdVslOZe2eo8AeVJ-14" value="Número del 1 a X num de places" style="ellipse;whiteSpace=wrap;html=1;" parent="1" vertex="1">
          <mxGeometry x="550" y="130" width="80" height="60" as="geometry" />
        </mxCell>
        <mxCell id="UzssVdVslOZe2eo8AeVJ-15" value="" style="endArrow=none;html=1;exitX=0.25;exitY=0;exitDx=0;exitDy=0;" parent="1" source="UzssVdVslOZe2eo8AeVJ-11" edge="1">
          <mxGeometry width="50" height="50" relative="1" as="geometry">
            <mxPoint x="490" y="180" as="sourcePoint" />
            <mxPoint x="500" y="160" as="targetPoint" />
          </mxGeometry>
        </mxCell>
        <mxCell id="UzssVdVslOZe2eo8AeVJ-16" value="&lt;u&gt;CodiPlaces&lt;/u&gt;" style="ellipse;whiteSpace=wrap;html=1;" parent="1" vertex="1">
          <mxGeometry x="470" y="130" width="70" height="50" as="geometry" />
        </mxCell>
        <mxCell id="UzssVdVslOZe2eo8AeVJ-18" value="" style="endArrow=none;html=1;entryX=0.5;entryY=1;entryDx=0;entryDy=0;" parent="1" target="UzssVdVslOZe2eo8AeVJ-11" edge="1">
          <mxGeometry width="50" height="50" relative="1" as="geometry">
            <mxPoint x="550" y="280" as="sourcePoint" />
            <mxPoint x="590" y="250" as="targetPoint" />
          </mxGeometry>
        </mxCell>
        <mxCell id="UzssVdVslOZe2eo8AeVJ-19" value="" style="endArrow=none;html=1;" parent="1" edge="1">
          <mxGeometry width="50" height="50" relative="1" as="geometry">
            <mxPoint x="460" y="280" as="sourcePoint" />
            <mxPoint x="650" y="280" as="targetPoint" />
          </mxGeometry>
        </mxCell>
        <mxCell id="UzssVdVslOZe2eo8AeVJ-20" value="" style="endArrow=none;html=1;" parent="1" edge="1">
          <mxGeometry width="50" height="50" relative="1" as="geometry">
            <mxPoint x="460" y="340" as="sourcePoint" />
            <mxPoint x="460" y="280" as="targetPoint" />
          </mxGeometry>
        </mxCell>
        <mxCell id="UzssVdVslOZe2eo8AeVJ-21" value="Venudes" style="rounded=0;whiteSpace=wrap;html=1;" parent="1" vertex="1">
          <mxGeometry x="400" y="340" width="120" height="40" as="geometry" />
        </mxCell>
        <mxCell id="UzssVdVslOZe2eo8AeVJ-22" value="" style="endArrow=none;html=1;" parent="1" edge="1">
          <mxGeometry width="50" height="50" relative="1" as="geometry">
            <mxPoint x="650" y="350" as="sourcePoint" />
            <mxPoint x="650" y="280" as="targetPoint" />
          </mxGeometry>
        </mxCell>
        <mxCell id="UzssVdVslOZe2eo8AeVJ-23" value="Lloguer" style="rounded=0;whiteSpace=wrap;html=1;" parent="1" vertex="1">
          <mxGeometry x="590" y="340" width="120" height="40" as="geometry" />
        </mxCell>
        <mxCell id="UzssVdVslOZe2eo8AeVJ-26" value="Nom" style="ellipse;whiteSpace=wrap;html=1;" parent="1" vertex="1">
          <mxGeometry x="355" y="660" width="65" height="40" as="geometry" />
        </mxCell>
        <mxCell id="UzssVdVslOZe2eo8AeVJ-27" value="Cognoms" style="ellipse;whiteSpace=wrap;html=1;" parent="1" vertex="1">
          <mxGeometry x="430" y="660" width="60" height="40" as="geometry" />
        </mxCell>
        <mxCell id="UzssVdVslOZe2eo8AeVJ-28" value="" style="endArrow=none;html=1;entryX=0.578;entryY=1.06;entryDx=0;entryDy=0;entryPerimeter=0;" parent="1" source="UzssVdVslOZe2eo8AeVJ-26" target="UzssVdVslOZe2eo8AeVJ-88" edge="1">
          <mxGeometry width="50" height="50" relative="1" as="geometry">
            <mxPoint x="400" y="410" as="sourcePoint" />
            <mxPoint x="420" y="380" as="targetPoint" />
          </mxGeometry>
        </mxCell>
        <mxCell id="UzssVdVslOZe2eo8AeVJ-29" value="" style="endArrow=none;html=1;entryX=1;entryY=1;entryDx=0;entryDy=0;exitX=0.5;exitY=0;exitDx=0;exitDy=0;" parent="1" source="UzssVdVslOZe2eo8AeVJ-27" target="UzssVdVslOZe2eo8AeVJ-88" edge="1">
          <mxGeometry width="50" height="50" relative="1" as="geometry">
            <mxPoint x="440" y="420" as="sourcePoint" />
            <mxPoint x="490" y="370" as="targetPoint" />
          </mxGeometry>
        </mxCell>
        <mxCell id="UzssVdVslOZe2eo8AeVJ-30" value="D.T" style="text;html=1;align=center;verticalAlign=middle;resizable=0;points=[];autosize=1;" parent="1" vertex="1">
          <mxGeometry x="595" y="250" width="30" height="20" as="geometry" />
        </mxCell>
        <mxCell id="UzssVdVslOZe2eo8AeVJ-33" value="" style="endArrow=none;html=1;entryX=0;entryY=0.5;entryDx=0;entryDy=0;exitX=1;exitY=0.5;exitDx=0;exitDy=0;" parent="1" source="UzssVdVslOZe2eo8AeVJ-34" target="UzssVdVslOZe2eo8AeVJ-1" edge="1">
          <mxGeometry width="50" height="50" relative="1" as="geometry">
            <mxPoint x="220" y="290" as="sourcePoint" />
            <mxPoint x="240" y="260" as="targetPoint" />
          </mxGeometry>
        </mxCell>
        <mxCell id="UzssVdVslOZe2eo8AeVJ-34" value="Treballa" style="rhombus;whiteSpace=wrap;html=1;" parent="1" vertex="1">
          <mxGeometry x="50" y="180" width="80" height="80" as="geometry" />
        </mxCell>
        <mxCell id="UzssVdVslOZe2eo8AeVJ-35" value="" style="endArrow=none;html=1;entryX=0;entryY=0.5;entryDx=0;entryDy=0;exitX=1;exitY=0.5;exitDx=0;exitDy=0;" parent="1" source="UzssVdVslOZe2eo8AeVJ-36" target="UzssVdVslOZe2eo8AeVJ-34" edge="1">
          <mxGeometry width="50" height="50" relative="1" as="geometry">
            <mxPoint x="220" y="410" as="sourcePoint" />
            <mxPoint x="220" y="380" as="targetPoint" />
          </mxGeometry>
        </mxCell>
        <mxCell id="UzssVdVslOZe2eo8AeVJ-36" value="Personal" style="rounded=0;whiteSpace=wrap;html=1;" parent="1" vertex="1">
          <mxGeometry x="-110" y="200" width="120" height="40" as="geometry" />
        </mxCell>
        <mxCell id="UzssVdVslOZe2eo8AeVJ-37" value="n" style="text;html=1;align=center;verticalAlign=middle;resizable=0;points=[];autosize=1;" parent="1" vertex="1">
          <mxGeometry x="20" y="190" width="20" height="20" as="geometry" />
        </mxCell>
        <mxCell id="UzssVdVslOZe2eo8AeVJ-38" value="1" style="text;html=1;align=center;verticalAlign=middle;resizable=0;points=[];autosize=1;" parent="1" vertex="1">
          <mxGeometry x="120" y="190" width="20" height="20" as="geometry" />
        </mxCell>
        <mxCell id="UzssVdVslOZe2eo8AeVJ-39" value="" style="endArrow=none;html=1;exitX=0.5;exitY=1;exitDx=0;exitDy=0;" parent="1" source="UzssVdVslOZe2eo8AeVJ-40" edge="1">
          <mxGeometry width="50" height="50" relative="1" as="geometry">
            <mxPoint x="170" y="480" as="sourcePoint" />
            <mxPoint x="-110" y="240" as="targetPoint" />
          </mxGeometry>
        </mxCell>
        <mxCell id="UzssVdVslOZe2eo8AeVJ-40" value="Categoria" style="ellipse;whiteSpace=wrap;html=1;" parent="1" vertex="1">
          <mxGeometry x="-230" y="240" width="60" height="40" as="geometry" />
        </mxCell>
        <mxCell id="UzssVdVslOZe2eo8AeVJ-42" value="" style="endArrow=none;html=1;entryX=0.5;entryY=1;entryDx=0;entryDy=0;" parent="1" target="UzssVdVslOZe2eo8AeVJ-1" edge="1">
          <mxGeometry width="50" height="50" relative="1" as="geometry">
            <mxPoint x="220" y="330" as="sourcePoint" />
            <mxPoint x="210" y="260" as="targetPoint" />
          </mxGeometry>
        </mxCell>
        <mxCell id="UzssVdVslOZe2eo8AeVJ-51" value="Data Inici" style="rhombus;whiteSpace=wrap;html=1;" parent="1" vertex="1">
          <mxGeometry x="10" y="360" width="80" height="80" as="geometry" />
        </mxCell>
        <mxCell id="UzssVdVslOZe2eo8AeVJ-52" value="" style="endArrow=none;html=1;entryX=0;entryY=0.5;entryDx=0;entryDy=0;" parent="1" target="UzssVdVslOZe2eo8AeVJ-51" edge="1">
          <mxGeometry width="50" height="50" relative="1" as="geometry">
            <mxPoint x="-50" y="400" as="sourcePoint" />
            <mxPoint x="-10" y="380" as="targetPoint" />
          </mxGeometry>
        </mxCell>
        <mxCell id="UzssVdVslOZe2eo8AeVJ-53" value="DataInici" style="rounded=0;whiteSpace=wrap;html=1;" parent="1" vertex="1">
          <mxGeometry x="-170" y="380" width="120" height="40" as="geometry" />
        </mxCell>
        <mxCell id="UzssVdVslOZe2eo8AeVJ-54" value="" style="endArrow=none;html=1;exitX=0.297;exitY=0.868;exitDx=0;exitDy=0;exitPerimeter=0;" parent="1" source="UzssVdVslOZe2eo8AeVJ-51" target="UzssVdVslOZe2eo8AeVJ-55" edge="1">
          <mxGeometry width="50" height="50" relative="1" as="geometry">
            <mxPoint x="30" y="360" as="sourcePoint" />
            <mxPoint x="20" y="320" as="targetPoint" />
          </mxGeometry>
        </mxCell>
        <mxCell id="UzssVdVslOZe2eo8AeVJ-55" value="DataInici" style="ellipse;whiteSpace=wrap;html=1;" parent="1" vertex="1">
          <mxGeometry x="-20" y="460" width="60" height="40" as="geometry" />
        </mxCell>
        <mxCell id="UzssVdVslOZe2eo8AeVJ-57" value="m" style="text;html=1;align=center;verticalAlign=middle;resizable=0;points=[];autosize=1;" parent="1" vertex="1">
          <mxGeometry x="-55" y="380" width="30" height="20" as="geometry" />
        </mxCell>
        <mxCell id="UzssVdVslOZe2eo8AeVJ-58" value="" style="endArrow=none;html=1;exitX=0.25;exitY=0;exitDx=0;exitDy=0;" parent="1" source="UzssVdVslOZe2eo8AeVJ-53" edge="1">
          <mxGeometry width="50" height="50" relative="1" as="geometry">
            <mxPoint x="-150" y="360" as="sourcePoint" />
            <mxPoint x="-160" y="330" as="targetPoint" />
          </mxGeometry>
        </mxCell>
        <mxCell id="UzssVdVslOZe2eo8AeVJ-59" value="&lt;u&gt;DataInici&lt;/u&gt;" style="ellipse;whiteSpace=wrap;html=1;" parent="1" vertex="1">
          <mxGeometry x="-190" y="300" width="70" height="50" as="geometry" />
        </mxCell>
        <mxCell id="UzssVdVslOZe2eo8AeVJ-62" value="" style="endArrow=none;html=1;exitX=0.862;exitY=-0.004;exitDx=0;exitDy=0;exitPerimeter=0;" parent="1" source="UzssVdVslOZe2eo8AeVJ-1" edge="1">
          <mxGeometry width="50" height="50" relative="1" as="geometry">
            <mxPoint x="270" y="180" as="sourcePoint" />
            <mxPoint x="290" y="170" as="targetPoint" />
          </mxGeometry>
        </mxCell>
        <mxCell id="UzssVdVslOZe2eo8AeVJ-63" value="Num Places" style="ellipse;whiteSpace=wrap;html=1;" parent="1" vertex="1">
          <mxGeometry x="270" y="140" width="50" height="40" as="geometry" />
        </mxCell>
        <mxCell id="UzssVdVslOZe2eo8AeVJ-64" value="Localització" style="rhombus;whiteSpace=wrap;html=1;" parent="1" vertex="1">
          <mxGeometry x="180" y="300" width="80" height="80" as="geometry" />
        </mxCell>
        <mxCell id="UzssVdVslOZe2eo8AeVJ-65" value="n" style="text;html=1;align=center;verticalAlign=middle;resizable=0;points=[];autosize=1;" parent="1" vertex="1">
          <mxGeometry x="200" y="250" width="20" height="20" as="geometry" />
        </mxCell>
        <mxCell id="UzssVdVslOZe2eo8AeVJ-66" value="" style="endArrow=none;html=1;entryX=0.5;entryY=1;entryDx=0;entryDy=0;" parent="1" target="UzssVdVslOZe2eo8AeVJ-64" edge="1">
          <mxGeometry width="50" height="50" relative="1" as="geometry">
            <mxPoint x="220" y="430" as="sourcePoint" />
            <mxPoint x="220" y="400" as="targetPoint" />
          </mxGeometry>
        </mxCell>
        <mxCell id="UzssVdVslOZe2eo8AeVJ-67" value="Ciutat" style="rounded=0;whiteSpace=wrap;html=1;" parent="1" vertex="1">
          <mxGeometry x="160" y="430" width="120" height="40" as="geometry" />
        </mxCell>
        <mxCell id="UzssVdVslOZe2eo8AeVJ-68" value="m" style="text;html=1;align=center;verticalAlign=middle;resizable=0;points=[];autosize=1;" parent="1" vertex="1">
          <mxGeometry x="190" y="380" width="30" height="20" as="geometry" />
        </mxCell>
        <mxCell id="UzssVdVslOZe2eo8AeVJ-69" value="" style="endArrow=none;html=1;entryX=0.25;entryY=1;entryDx=0;entryDy=0;" parent="1" target="UzssVdVslOZe2eo8AeVJ-67" edge="1">
          <mxGeometry width="50" height="50" relative="1" as="geometry">
            <mxPoint x="150" y="530" as="sourcePoint" />
            <mxPoint x="200" y="480" as="targetPoint" />
          </mxGeometry>
        </mxCell>
        <mxCell id="UzssVdVslOZe2eo8AeVJ-70" value="&lt;u&gt;CodiCiutat&lt;/u&gt;" style="ellipse;whiteSpace=wrap;html=1;" parent="1" vertex="1">
          <mxGeometry x="120" y="500" width="70" height="40" as="geometry" />
        </mxCell>
        <mxCell id="UzssVdVslOZe2eo8AeVJ-71" value="" style="endArrow=none;html=1;exitX=0.5;exitY=0;exitDx=0;exitDy=0;entryX=0.65;entryY=1.022;entryDx=0;entryDy=0;entryPerimeter=0;" parent="1" source="UzssVdVslOZe2eo8AeVJ-72" target="UzssVdVslOZe2eo8AeVJ-67" edge="1">
          <mxGeometry width="50" height="50" relative="1" as="geometry">
            <mxPoint x="220" y="510" as="sourcePoint" />
            <mxPoint x="240" y="480" as="targetPoint" />
          </mxGeometry>
        </mxCell>
        <mxCell id="UzssVdVslOZe2eo8AeVJ-72" value="Nom" style="ellipse;whiteSpace=wrap;html=1;" parent="1" vertex="1">
          <mxGeometry x="230" y="500" width="60" height="40" as="geometry" />
        </mxCell>
        <mxCell id="UzssVdVslOZe2eo8AeVJ-73" value="&lt;u&gt;NIF&lt;/u&gt;" style="ellipse;whiteSpace=wrap;html=1;" parent="1" vertex="1">
          <mxGeometry x="-220" y="190" width="60" height="40" as="geometry" />
        </mxCell>
        <mxCell id="UzssVdVslOZe2eo8AeVJ-74" value="" style="endArrow=none;html=1;" parent="1" target="UzssVdVslOZe2eo8AeVJ-73" edge="1">
          <mxGeometry width="50" height="50" relative="1" as="geometry">
            <mxPoint x="-110" y="200" as="sourcePoint" />
            <mxPoint x="-80" y="160" as="targetPoint" />
          </mxGeometry>
        </mxCell>
        <mxCell id="UzssVdVslOZe2eo8AeVJ-75" value="" style="endArrow=none;html=1;entryX=0.5;entryY=1;entryDx=0;entryDy=0;exitX=0.5;exitY=0;exitDx=0;exitDy=0;" parent="1" source="UzssVdVslOZe2eo8AeVJ-51" target="UzssVdVslOZe2eo8AeVJ-34" edge="1">
          <mxGeometry width="50" height="50" relative="1" as="geometry">
            <mxPoint x="220" y="330" as="sourcePoint" />
            <mxPoint x="270" y="280" as="targetPoint" />
          </mxGeometry>
        </mxCell>
        <mxCell id="UzssVdVslOZe2eo8AeVJ-76" value="" style="endArrow=none;html=1;entryX=0;entryY=1;entryDx=0;entryDy=0;" parent="1" target="UzssVdVslOZe2eo8AeVJ-34" edge="1">
          <mxGeometry width="50" height="50" relative="1" as="geometry">
            <mxPoint x="10" y="300" as="sourcePoint" />
            <mxPoint x="60" y="250" as="targetPoint" />
          </mxGeometry>
        </mxCell>
        <mxCell id="UzssVdVslOZe2eo8AeVJ-77" value="&lt;u&gt;DataFi&lt;/u&gt;" style="ellipse;whiteSpace=wrap;html=1;" parent="1" vertex="1">
          <mxGeometry x="-20" y="280" width="70" height="40" as="geometry" />
        </mxCell>
        <mxCell id="UzssVdVslOZe2eo8AeVJ-78" value="1" style="text;html=1;align=center;verticalAlign=middle;resizable=0;points=[];autosize=1;" parent="1" vertex="1">
          <mxGeometry x="60" y="250" width="20" height="20" as="geometry" />
        </mxCell>
        <mxCell id="UzssVdVslOZe2eo8AeVJ-80" value="" style="endArrow=none;html=1;entryX=0.4;entryY=1.037;entryDx=0;entryDy=0;entryPerimeter=0;" parent="1" target="UzssVdVslOZe2eo8AeVJ-23" edge="1">
          <mxGeometry width="50" height="50" relative="1" as="geometry">
            <mxPoint x="630" y="450" as="sourcePoint" />
            <mxPoint x="680" y="400" as="targetPoint" />
          </mxGeometry>
        </mxCell>
        <mxCell id="UzssVdVslOZe2eo8AeVJ-81" value="&lt;u&gt;PlacesDisponibles&lt;/u&gt;" style="ellipse;whiteSpace=wrap;html=1;" parent="1" vertex="1">
          <mxGeometry x="580" y="450" width="140" height="30" as="geometry" />
        </mxCell>
        <mxCell id="UzssVdVslOZe2eo8AeVJ-83" value="" style="endArrow=none;html=1;entryX=0.25;entryY=1;entryDx=0;entryDy=0;exitX=1;exitY=0;exitDx=0;exitDy=0;" parent="1" source="UzssVdVslOZe2eo8AeVJ-85" target="UzssVdVslOZe2eo8AeVJ-21" edge="1">
          <mxGeometry width="50" height="50" relative="1" as="geometry">
            <mxPoint x="430" y="470" as="sourcePoint" />
            <mxPoint x="460" y="450" as="targetPoint" />
          </mxGeometry>
        </mxCell>
        <mxCell id="UzssVdVslOZe2eo8AeVJ-84" value="n" style="text;html=1;align=center;verticalAlign=middle;resizable=0;points=[];autosize=1;" parent="1" vertex="1">
          <mxGeometry x="410" y="380" width="20" height="20" as="geometry" />
        </mxCell>
        <mxCell id="UzssVdVslOZe2eo8AeVJ-85" value="Pertany" style="rhombus;whiteSpace=wrap;html=1;" parent="1" vertex="1">
          <mxGeometry x="345" y="450" width="80" height="80" as="geometry" />
        </mxCell>
        <mxCell id="UzssVdVslOZe2eo8AeVJ-86" value="" style="endArrow=none;html=1;" parent="1" target="UzssVdVslOZe2eo8AeVJ-85" edge="1">
          <mxGeometry width="50" height="50" relative="1" as="geometry">
            <mxPoint x="370" y="580" as="sourcePoint" />
            <mxPoint x="370" y="540" as="targetPoint" />
          </mxGeometry>
        </mxCell>
        <mxCell id="UzssVdVslOZe2eo8AeVJ-87" value="1" style="text;html=1;align=center;verticalAlign=middle;resizable=0;points=[];autosize=1;" parent="1" vertex="1">
          <mxGeometry x="350" y="550" width="20" height="20" as="geometry" />
        </mxCell>
        <mxCell id="UzssVdVslOZe2eo8AeVJ-88" value="Propietari" style="rounded=0;whiteSpace=wrap;html=1;" parent="1" vertex="1">
          <mxGeometry x="310" y="580" width="120" height="40" as="geometry" />
        </mxCell>
        <mxCell id="UzssVdVslOZe2eo8AeVJ-89" value="&lt;u&gt;NIF&lt;/u&gt;" style="ellipse;whiteSpace=wrap;html=1;" parent="1" vertex="1">
          <mxGeometry x="280" y="650" width="60" height="50" as="geometry" />
        </mxCell>
        <mxCell id="UzssVdVslOZe2eo8AeVJ-90" value="" style="endArrow=none;html=1;exitX=1;exitY=0;exitDx=0;exitDy=0;" parent="1" source="UzssVdVslOZe2eo8AeVJ-89" edge="1">
          <mxGeometry width="50" height="50" relative="1" as="geometry">
            <mxPoint x="310" y="670" as="sourcePoint" />
            <mxPoint x="360" y="620" as="targetPoint" />
          </mxGeometry>
        </mxCell>
        <mxCell id="UzssVdVslOZe2eo8AeVJ-91" value="" style="endArrow=none;html=1;entryX=1;entryY=1;entryDx=0;entryDy=0;" parent="1" target="UzssVdVslOZe2eo8AeVJ-21" edge="1">
          <mxGeometry width="50" height="50" relative="1" as="geometry">
            <mxPoint x="520" y="480" as="sourcePoint" />
            <mxPoint x="540" y="420" as="targetPoint" />
          </mxGeometry>
        </mxCell>
        <mxCell id="UzssVdVslOZe2eo8AeVJ-94" value="Registrat" style="rhombus;whiteSpace=wrap;html=1;" parent="1" vertex="1">
          <mxGeometry x="480" y="470" width="80" height="80" as="geometry" />
        </mxCell>
        <mxCell id="UzssVdVslOZe2eo8AeVJ-95" value="Cotxe&amp;nbsp;" style="rounded=0;whiteSpace=wrap;html=1;" parent="1" vertex="1">
          <mxGeometry x="490" y="580" width="120" height="40" as="geometry" />
        </mxCell>
        <mxCell id="UzssVdVslOZe2eo8AeVJ-97" value="1" style="text;html=1;align=center;verticalAlign=middle;resizable=0;points=[];autosize=1;" parent="1" vertex="1">
          <mxGeometry x="490" y="380" width="20" height="20" as="geometry" />
        </mxCell>
        <mxCell id="UzssVdVslOZe2eo8AeVJ-98" value="" style="endArrow=none;html=1;entryX=0.5;entryY=1;entryDx=0;entryDy=0;exitX=0.25;exitY=0;exitDx=0;exitDy=0;" parent="1" source="UzssVdVslOZe2eo8AeVJ-95" target="UzssVdVslOZe2eo8AeVJ-94" edge="1">
          <mxGeometry width="50" height="50" relative="1" as="geometry">
            <mxPoint x="510" y="590" as="sourcePoint" />
            <mxPoint x="560" y="540" as="targetPoint" />
          </mxGeometry>
        </mxCell>
        <mxCell id="UzssVdVslOZe2eo8AeVJ-99" value="n" style="text;html=1;align=center;verticalAlign=middle;resizable=0;points=[];autosize=1;" parent="1" vertex="1">
          <mxGeometry x="500" y="540" width="20" height="20" as="geometry" />
        </mxCell>
        <mxCell id="UzssVdVslOZe2eo8AeVJ-100" value="&lt;u&gt;Matrícula&lt;/u&gt;" style="ellipse;whiteSpace=wrap;html=1;" parent="1" vertex="1">
          <mxGeometry x="580" y="650" width="80" height="40" as="geometry" />
        </mxCell>
        <mxCell id="UzssVdVslOZe2eo8AeVJ-101" value="" style="endArrow=none;html=1;" parent="1" source="UzssVdVslOZe2eo8AeVJ-100" edge="1">
          <mxGeometry width="50" height="50" relative="1" as="geometry">
            <mxPoint x="510" y="670" as="sourcePoint" />
            <mxPoint x="560" y="620" as="targetPoint" />
          </mxGeometry>
        </mxCell>
        <mxCell id="n6lD-dOST9NLsyUhB1Q_-1" value="" style="endArrow=none;html=1;exitX=0;exitY=0;exitDx=0;exitDy=0;" edge="1" parent="1" source="UzssVdVslOZe2eo8AeVJ-1">
          <mxGeometry width="50" height="50" relative="1" as="geometry">
            <mxPoint x="100" y="180" as="sourcePoint" />
            <mxPoint x="90" y="140" as="targetPoint" />
          </mxGeometry>
        </mxCell>
        <mxCell id="n6lD-dOST9NLsyUhB1Q_-2" value="Assigna" style="rhombus;whiteSpace=wrap;html=1;" vertex="1" parent="1">
          <mxGeometry x="50" y="70" width="80" height="80" as="geometry" />
        </mxCell>
        <mxCell id="n6lD-dOST9NLsyUhB1Q_-3" value="1" style="text;html=1;align=center;verticalAlign=middle;resizable=0;points=[];autosize=1;" vertex="1" parent="1">
          <mxGeometry x="150" y="180" width="20" height="20" as="geometry" />
        </mxCell>
        <mxCell id="n6lD-dOST9NLsyUhB1Q_-4" value="" style="endArrow=none;html=1;exitX=0.5;exitY=0;exitDx=0;exitDy=0;" edge="1" parent="1" source="n6lD-dOST9NLsyUhB1Q_-2">
          <mxGeometry width="50" height="50" relative="1" as="geometry">
            <mxPoint x="30" y="60" as="sourcePoint" />
            <mxPoint x="90" y="30" as="targetPoint" />
          </mxGeometry>
        </mxCell>
        <mxCell id="n6lD-dOST9NLsyUhB1Q_-5" value="Encarregat" style="rounded=0;whiteSpace=wrap;html=1;" vertex="1" parent="1">
          <mxGeometry x="40" y="10" width="120" height="40" as="geometry" />
        </mxCell>
        <mxCell id="n6lD-dOST9NLsyUhB1Q_-6" value="" style="endArrow=none;html=1;entryX=0.25;entryY=0;entryDx=0;entryDy=0;" edge="1" parent="1" target="n6lD-dOST9NLsyUhB1Q_-5">
          <mxGeometry width="50" height="50" relative="1" as="geometry">
            <mxPoint x="40" y="-20" as="sourcePoint" />
            <mxPoint x="30" as="targetPoint" />
          </mxGeometry>
        </mxCell>
        <mxCell id="n6lD-dOST9NLsyUhB1Q_-7" value="&lt;u&gt;CodiE&lt;/u&gt;" style="ellipse;whiteSpace=wrap;html=1;" vertex="1" parent="1">
          <mxGeometry y="-40" width="70" height="30" as="geometry" />
        </mxCell>
        <mxCell id="n6lD-dOST9NLsyUhB1Q_-8" value="" style="endArrow=none;html=1;" edge="1" parent="1" source="n6lD-dOST9NLsyUhB1Q_-5">
          <mxGeometry width="50" height="50" relative="1" as="geometry">
            <mxPoint x="100" y="20" as="sourcePoint" />
            <mxPoint x="140" y="-20" as="targetPoint" />
          </mxGeometry>
        </mxCell>
        <mxCell id="n6lD-dOST9NLsyUhB1Q_-9" value="Capacitats" style="ellipse;whiteSpace=wrap;html=1;" vertex="1" parent="1">
          <mxGeometry x="110" y="-40" width="70" height="30" as="geometry" />
        </mxCell>
        <mxCell id="n6lD-dOST9NLsyUhB1Q_-10" value="" style="endArrow=none;html=1;entryX=0;entryY=0.75;entryDx=0;entryDy=0;" edge="1" parent="1" target="n6lD-dOST9NLsyUhB1Q_-5">
          <mxGeometry width="50" height="50" relative="1" as="geometry">
            <mxPoint y="150" as="sourcePoint" />
            <mxPoint x="20" y="50" as="targetPoint" />
          </mxGeometry>
        </mxCell>
        <mxCell id="n6lD-dOST9NLsyUhB1Q_-11" value="" style="endArrow=none;html=1;" edge="1" parent="1">
          <mxGeometry width="50" height="50" relative="1" as="geometry">
            <mxPoint x="-100" y="150" as="sourcePoint" />
            <mxPoint y="150" as="targetPoint" />
          </mxGeometry>
        </mxCell>
        <mxCell id="n6lD-dOST9NLsyUhB1Q_-12" value="" style="endArrow=none;html=1;exitX=0.577;exitY=-0.025;exitDx=0;exitDy=0;exitPerimeter=0;" edge="1" parent="1" source="UzssVdVslOZe2eo8AeVJ-36">
          <mxGeometry width="50" height="50" relative="1" as="geometry">
            <mxPoint x="-70" y="210" as="sourcePoint" />
            <mxPoint x="-40" y="150" as="targetPoint" />
          </mxGeometry>
        </mxCell>
        <mxCell id="n6lD-dOST9NLsyUhB1Q_-13" value="" style="endArrow=none;html=1;" edge="1" parent="1">
          <mxGeometry width="50" height="50" relative="1" as="geometry">
            <mxPoint x="-100" y="80" as="sourcePoint" />
            <mxPoint x="-100" y="150" as="targetPoint" />
          </mxGeometry>
        </mxCell>
        <mxCell id="n6lD-dOST9NLsyUhB1Q_-14" value="Altres empleats" style="rounded=0;whiteSpace=wrap;html=1;" vertex="1" parent="1">
          <mxGeometry x="-160" y="40" width="120" height="40" as="geometry" />
        </mxCell>
        <mxCell id="n6lD-dOST9NLsyUhB1Q_-15" value="D.T" style="text;html=1;align=center;verticalAlign=middle;resizable=0;points=[];autosize=1;" vertex="1" parent="1">
          <mxGeometry x="-35" y="180" width="30" height="20" as="geometry" />
        </mxCell>
        <mxCell id="n6lD-dOST9NLsyUhB1Q_-16" value="Nº places venudes" style="ellipse;whiteSpace=wrap;html=1;" vertex="1" parent="1">
          <mxGeometry x="310" y="300" width="80" height="40" as="geometry" />
        </mxCell>
        <mxCell id="n6lD-dOST9NLsyUhB1Q_-17" value="" style="endArrow=none;html=1;exitX=1;exitY=1;exitDx=0;exitDy=0;" edge="1" parent="1" source="n6lD-dOST9NLsyUhB1Q_-16">
          <mxGeometry width="50" height="50" relative="1" as="geometry">
            <mxPoint x="360" y="400" as="sourcePoint" />
            <mxPoint x="400" y="350" as="targetPoint" />
          </mxGeometry>
        </mxCell>
      </root>
    </mxGraphModel>
  </diagram>
</mxfile>
